<?xml version="1.0" encoding="UTF-8"?>
<svg id="Camada_1" xmlns="http://www.w3.org/2000/svg" version="1.1" xmlns:xlink="http://www.w3.org/1999/xlink" viewBox="-40 0 717.04 414.78">
  <!-- Generator: Adobe Illustrator 30.3.0, SVG Export Plug-In . SVG Version: 2.1.3 Build 182)  -->
  <defs>
    <style>
      .st0 {
        fill: #f1cf00;
        font-family: Impact, Impact;
        font-size: 203px;
      }

      .st1 {
        fill: #fefdeb;
      }

      .st2 {
        fill: #eabf3b;
      }
    </style>
    <path id="path" d="M-13.48,400.66s247.4-19.96,329.87-19.96,329.87,19.96,329.87,19.96"/>
  </defs>
  <text>
    <textPath startOffset=".46%" xlink:href="#path"><tspan class="st0"><tspan x="0" y="0">HERÓIS</tspan></tspan>
    </textPath></text>
  <g>
    <path class="st1" d="M51.77,170.19c-3.1-.56-6.1-1.36-9.02-2.42l1.03-5.8c2.97.85,5.94,1.48,8.94,1.91,2.99.42,5.81.64,8.46.64,3.18,0,5.68-.67,7.51-2.03,1.83-1.35,2.74-3.24,2.74-5.68,0-1.64-.38-3.03-1.15-4.17-.77-1.14-2.01-2.14-3.73-3.02-1.72-.87-4.01-1.71-6.87-2.5-3.76-1.06-6.81-2.24-9.13-3.53-2.33-1.3-4.08-2.87-5.24-4.73-1.17-1.85-1.75-4.1-1.75-6.75,0-4.71,1.5-8.31,4.49-10.8,2.99-2.49,7.27-3.73,12.83-3.73,2.91,0,5.53.16,7.86.48,2.33.32,4.63.85,6.91,1.59-.27,2.54-.56,4.58-.87,6.12-2.17-.64-4.33-1.07-6.47-1.31-2.15-.24-4.67-.36-7.59-.36-3.18,0-5.64.65-7.39,1.95-1.75,1.3-2.62,3.16-2.62,5.6,0,1.54.36,2.83,1.07,3.89.71,1.06,1.83,1.99,3.34,2.78,1.51.79,3.53,1.56,6.08,2.3,4.13,1.22,7.45,2.53,9.97,3.93,2.51,1.4,4.37,3.09,5.56,5.04,1.19,1.96,1.79,4.32,1.79,7.07,0,4.61-1.5,8.16-4.49,10.64-2.99,2.49-7.24,3.73-12.75,3.73-3.23,0-6.39-.28-9.49-.83Z"/>
    <path class="st1" d="M128.38,125.75v-7.47h7.07v51.63h-7.07v-44.16ZM128.78,118.28h5.48v5.4l-5.48,1.35v-6.75ZM134.1,163.95l26.77-.48-.4,6.43h-30.1l3.73-5.96ZM134.1,124.24l.32-5.96h25.26l.4,6.35-25.97-.4ZM134.5,145.84v-5.4l21.29-.56v6.35l-21.29-.4Z"/>
    <path class="st1" d="M210.91,118.28h7.07v45.67l19.22-.24h4.69l-.32,6.2h-30.66v-51.63Z"/>
    <path class="st1" d="M290.42,125.75v-7.47h7.07v51.63h-7.07v-44.16ZM290.82,118.28h5.48v5.4l-5.48,1.35v-6.75ZM296.14,163.95l26.77-.48-.4,6.43h-30.1l3.73-5.96ZM296.14,124.24l.32-5.96h25.26l.4,6.35-25.97-.4ZM296.53,145.84v-5.4l21.29-.56v6.35l-21.29-.4Z"/>
    <path class="st1" d="M380.61,167.77c-3.57-2.17-6.3-5.29-8.18-9.37-1.88-4.08-2.82-8.95-2.82-14.62s.95-10.26,2.86-14.26c1.91-4,4.65-7.06,8.22-9.17,3.57-2.12,7.77-3.18,12.59-3.18,2.65,0,5,.19,7.07.56,2.07.37,4.53,1.01,7.39,1.91l-1.35,6.12c-1.75-.48-3.42-.87-5-1.19-1.54-.26-2.91-.46-4.13-.6-1.22-.13-2.41-.2-3.57-.2-3.44,0-6.42.79-8.94,2.38-2.52,1.59-4.45,3.88-5.8,6.87-1.35,2.99-2.03,6.55-2.03,10.68s.65,7.98,1.95,11.08,3.22,5.48,5.76,7.15c2.54,1.67,5.61,2.5,9.21,2.5,2.07,0,4.24-.21,6.51-.64,2.28-.42,4.29-.9,6.04-1.43l1.43,6.2c-2.86.9-5.33,1.54-7.43,1.91-2.09.37-4.38.56-6.87.56-5.03,0-9.33-1.09-12.91-3.26ZM384.54,183.18l5-14.22,4.77.16-3.34,15.17-6.43-1.11Z"/>
    <path class="st1" d="M459.21,145.8c2.96-9.03,6.22-18.2,9.77-27.52h11.76c3.65,9.53,6.92,18.76,9.81,27.68,2.89,8.92,5.2,16.91,6.95,23.95h-7.39c-1.8-6.67-3.07-11.2-3.81-13.58h-22.88c-1.85,6.3-3.12,10.83-3.81,13.58h-7.39c1.69-7.04,4.02-15.08,6.99-24.11ZM477.55,113.24c-.95-.45-2.04-1.1-3.26-1.95-1.38-.85-2.37-1.43-2.98-1.75-.61-.32-1.21-.48-1.79-.48-.95,0-1.8.44-2.54,1.31-.74.87-1.56,2.24-2.46,4.09l-2.86-1.19c1.32-3.07,2.62-5.33,3.89-6.79,1.27-1.46,2.7-2.18,4.29-2.18.79,0,1.64.21,2.54.64.9.42,1.99,1.06,3.26,1.91,1.16.74,2.12,1.3,2.86,1.67.74.37,1.4.56,1.99.56.85,0,1.65-.45,2.42-1.35.77-.9,1.58-2.25,2.42-4.05l2.94,1.19c-1.32,3.07-2.62,5.35-3.89,6.83-1.27,1.48-2.67,2.22-4.21,2.22-.79,0-1.67-.22-2.62-.68ZM480.41,137.03c-1.43-4.18-2.89-8.26-4.37-12.23h-2.38c-1.54,4.18-3.06,8.46-4.57,12.83s-2.9,8.62-4.17,12.75h19.86c-1.48-4.71-2.94-9.16-4.37-13.34Z"/>
    <path class="st1" d="M553.69,167.73c-3.47-2.2-6.14-5.32-8.02-9.37-1.88-4.05-2.82-8.8-2.82-14.26s.94-10.21,2.82-14.26c1.88-4.05,4.55-7.17,8.02-9.37,3.47-2.2,7.51-3.3,12.11-3.3s8.64,1.1,12.11,3.3c3.47,2.2,6.14,5.32,8.02,9.37,1.88,4.05,2.82,8.8,2.82,14.26s-.94,10.21-2.82,14.26c-1.88,4.05-4.55,7.18-8.02,9.37-3.47,2.2-7.51,3.3-12.11,3.3s-8.65-1.1-12.11-3.3ZM574.06,161.85c2.38-1.67,4.22-4.02,5.52-7.07,1.3-3.04,1.95-6.6,1.95-10.68s-.65-7.65-1.95-10.72c-1.3-3.07-3.14-5.44-5.52-7.11s-5.16-2.5-8.34-2.5-5.96.82-8.34,2.46c-2.38,1.64-4.21,4-5.48,7.07-1.27,3.07-1.91,6.67-1.91,10.8s.64,7.65,1.91,10.72c1.27,3.07,3.1,5.43,5.48,7.07,2.38,1.64,5.16,2.46,8.34,2.46s5.96-.83,8.34-2.5Z"/>
  </g>
  <g>
    <path class="st1" d="M280.12,188.21v-4.86h8.64c2.84,0,5.3.57,7.4,1.7,2.09,1.13,3.7,2.75,4.84,4.86,1.13,2.11,1.7,4.58,1.7,7.42s-.57,5.31-1.7,7.42c-1.13,2.11-2.75,3.73-4.84,4.86-2.09,1.13-4.56,1.7-7.4,1.7h-8.64v-23.09ZM293.99,206.57c1.51-.86,2.67-2.09,3.48-3.68.82-1.59,1.23-3.45,1.23-5.57s-.41-3.98-1.23-5.57c-.82-1.59-1.98-2.81-3.48-3.66-1.5-.85-3.26-1.27-5.27-1.27h-4.86v21.03h4.86c2.01,0,3.76-.43,5.27-1.29Z"/>
    <path class="st1" d="M312.95,210.12c-1.88-1.19-3.33-2.88-4.34-5.07-1.02-2.19-1.53-4.77-1.53-7.72s.51-5.53,1.53-7.72c1.02-2.19,2.46-3.88,4.34-5.07,1.88-1.19,4.06-1.78,6.56-1.78s4.68.6,6.56,1.78c1.88,1.19,3.33,2.88,4.34,5.07,1.02,2.19,1.53,4.77,1.53,7.72s-.51,5.53-1.53,7.72c-1.02,2.19-2.47,3.88-4.34,5.07-1.88,1.19-4.06,1.78-6.56,1.78s-4.68-.6-6.56-1.78ZM323.98,206.94c1.29-.9,2.29-2.18,2.99-3.83.7-1.65,1.05-3.58,1.05-5.78s-.35-4.14-1.05-5.8c-.7-1.66-1.7-2.95-2.99-3.85-1.29-.9-2.79-1.35-4.51-1.35s-3.23.44-4.52,1.33c-1.29.89-2.28,2.16-2.97,3.83-.69,1.66-1.03,3.61-1.03,5.85s.34,4.14,1.03,5.81c.69,1.66,1.68,2.94,2.97,3.83s2.8,1.33,4.52,1.33,3.22-.45,4.51-1.35Z"/>
    <path class="st1" d="M340.52,211.45c-1.68-.3-3.3-.74-4.88-1.31l.56-3.14c1.61.46,3.22.8,4.84,1.03,1.62.23,3.15.34,4.58.34,1.72,0,3.08-.37,4.06-1.1.99-.73,1.48-1.76,1.48-3.07,0-.89-.21-1.64-.62-2.26-.42-.62-1.09-1.16-2.02-1.63-.93-.47-2.17-.92-3.72-1.35-2.04-.57-3.68-1.21-4.95-1.91-1.26-.7-2.21-1.55-2.84-2.56-.63-1-.95-2.22-.95-3.65,0-2.55.81-4.5,2.43-5.85,1.62-1.35,3.93-2.02,6.94-2.02,1.58,0,3,.09,4.26.26s2.51.46,3.74.86c-.14,1.38-.3,2.48-.47,3.31-1.18-.34-2.34-.58-3.5-.71-1.16-.13-2.53-.19-4.11-.19-1.72,0-3.05.35-4,1.05-.95.7-1.42,1.71-1.42,3.03,0,.83.19,1.53.58,2.11.39.57.99,1.08,1.81,1.51.82.43,1.91.85,3.29,1.25,2.24.66,4.04,1.37,5.4,2.13,1.36.76,2.37,1.67,3.01,2.73.64,1.06.97,2.34.97,3.83,0,2.49-.81,4.42-2.43,5.76-1.62,1.35-3.92,2.02-6.9,2.02-1.75,0-3.46-.15-5.14-.45Z"/>
  </g>
  <g>
    <polygon class="st2" points="188.12 61.1 181.64 47.97 177.78 55.79 175.12 61.11 160.66 63.21 171.15 73.43 168.68 87.87 181.64 81.05 194.61 87.87 192.13 73.43 202.62 63.21 188.12 61.1"/>
    <polygon class="st2" points="253.44 55.15 245.52 39.1 240.8 48.66 237.55 55.16 219.88 57.73 232.7 70.22 229.67 87.87 245.52 79.54 261.37 87.87 258.34 70.22 271.16 57.73 253.44 55.15"/>
    <polygon class="st2" points="349.02 49.51 326.48 46.23 316.39 25.8 310.39 37.96 306.25 46.24 283.76 49.51 300.08 65.41 296.22 87.87 316.39 77.27 336.56 87.87 332.71 65.41 349.02 49.51"/>
    <polygon class="st2" points="412.9 57.73 395.19 55.15 387.26 39.1 382.55 48.66 379.29 55.16 361.62 57.73 374.44 70.22 371.42 87.87 387.26 79.54 403.11 87.87 400.08 70.22 412.9 57.73"/>
    <polygon class="st2" points="472.12 63.21 457.62 61.1 451.14 47.97 447.28 55.79 444.62 61.11 430.16 63.21 440.65 73.43 438.18 87.87 451.14 81.05 464.11 87.87 461.63 73.43 472.12 63.21"/>
  </g>
</svg>
